<svg xmlns="http://www.w3.org/2000/svg" viewBox="0 0 512 512"><defs><linearGradient id="a" x1="0" y1="0" x2=".15" y2="1"><stop offset="0%" stop-color="#6fff3a"/><stop offset="100%" stop-color="#2d0"/></linearGradient><linearGradient id="b" x1="0" y1="1" x2="1" y2="0"><stop offset="0%" stop-color="#2d0"/><stop offset="50%" stop-color="#5f4"/><stop offset="100%" stop-color="#0f8"/></linearGradient><filter id="c" x="-80%" y="-80%" width="260%" height="260%"><feGaussianBlur stdDeviation="10" result="b"/><feComposite in="SourceGraphic" in2="b"/></filter><filter id="d" x="-120%" y="-120%" width="340%" height="340%"><feGaussianBlur stdDeviation="7" result="b"/><feMerge><feMergeNode in="b"/><feMergeNode in="SourceGraphic"/></feMerge></filter></defs><rect x="128" y="64" width="58" height="384" rx="20" fill="url(#a)" opacity=".93"/><rect x="227" y="128" width="58" height="256" rx="20" fill="url(#a)" opacity=".65"/><rect x="326" y="218" width="58" height="166" rx="20" fill="url(#a)" opacity=".42"/><path d="M157 408c0-138 99-133 99-152s99-14 99-118" stroke="url(#b)" stroke-width="7" fill="none" stroke-linecap="round" filter="url(#c)" opacity=".8"/><circle cx="157" cy="408" r="22" fill="#2d0" filter="url(#d)"/><circle cx="157" cy="408" r="13" fill="#fff" opacity=".95"/><circle cx="256" cy="256" r="22" fill="#5f4" filter="url(#d)"/><circle cx="256" cy="256" r="13" fill="#fff" opacity=".95"/><circle cx="355" cy="138" r="22" fill="#0f8" filter="url(#d)"/><circle cx="355" cy="138" r="13" fill="#fff" opacity=".95"/></svg>